<?xml version="1.0" encoding="iso-8859-1"?>
<!-- Generator: Adobe Illustrator 19.0.0, SVG Export Plug-In . SVG Version: 6.00 Build 0)  -->
<svg version="1.1" id="Layer_1" xmlns="http://www.w3.org/2000/svg" xmlns:xlink="http://www.w3.org/1999/xlink" x="0px" y="0px"
	 viewBox="0 0 490.279 490.279" style="enable-background:new 0 0 490.279 490.279;" xml:space="preserve" fill="#05434d">
<g>
	<path d="M442.779,358.344V223.457h41.213L347.779,87.243L211.566,223.457h41.213v149.466c-1.611,0.073-3.273,0.113-5.001,0.113
		c-25.731,0-38.019-8.277-52.245-17.862c-15.895-10.708-33.906-22.832-68.398-22.975V173.898
		c23.946,6.592,41.593,28.547,41.593,54.559h30c0-28.402-13.746-53.652-34.933-69.452c14.618,2.506,27.456,10.473,36.204,22.515
		l24.271-17.633c-13.604-18.725-33.672-31.029-56.506-34.646c-4.13-0.654-8.261-1-12.369-1.063
		c12.736-6.226,27.799-7.729,42.316-3.012l9.27-28.532c-35.422-11.509-73.004,1.141-94.823,28.821
		c-7.661-9.766-17.41-17.836-28.792-23.636c-20.6-10.495-44.067-12.337-66.078-5.185l9.27,28.532
		c14.159-4.6,29.229-3.499,42.531,3.068C42.661,128.561,16.695,140.907,0,163.886l24.27,17.634
		c8.998-12.384,22.116-20.031,36.125-22.457c-21.142,15.804-34.852,41.028-34.852,69.394h30c0-26.012,17.646-47.967,41.592-54.559
		v161.749c-17.134,4.394-28.86,12.282-39.612,19.526c-14.227,9.585-26.513,17.862-52.243,17.862v30
		c34.894,0,53.017-12.209,69.005-22.982c14.227-9.584,26.513-17.862,52.242-17.862c25.731,0,38.019,8.277,52.245,17.862
		c15.989,10.772,34.112,22.981,69.007,22.981s53.018-12.209,69.007-22.981c14.227-9.585,26.514-17.862,52.246-17.862
		c25.73,0,38.017,8.277,52.243,17.862c15.989,10.772,34.111,22.982,69.005,22.982v-30
		C467.44,373.036,455.193,366.513,442.779,358.344z M347.779,129.67l63.787,63.787H283.992L347.779,129.67z M362.779,332.329
		v-63.872h-30v69.218c-13.523,4.552-23.501,11.264-32.756,17.499c-5.727,3.859-11.142,7.504-17.244,10.484V223.457h130v117.09
		c-11.292-4.878-25.132-8.354-43.748-8.354C366.885,332.192,364.802,332.239,362.779,332.329z"/>
</g>
<g>
</g>
<g>
</g>
<g>
</g>
<g>
</g>
<g>
</g>
<g>
</g>
<g>
</g>
<g>
</g>
<g>
</g>
<g>
</g>
<g>
</g>
<g>
</g>
<g>
</g>
<g>
</g>
<g>
</g>
</svg>
