<?xml version="1.0" encoding="iso-8859-1"?>
<!-- Generator: Adobe Illustrator 19.0.0, SVG Export Plug-In . SVG Version: 6.00 Build 0)  -->
<svg version="1.1" id="Layer_1" xmlns="http://www.w3.org/2000/svg" xmlns:xlink="http://www.w3.org/1999/xlink" x="0px" y="0px"
	 viewBox="0 0 512.001 512.001" style="enable-background:new 0 0 512.001 512.001;" xml:space="preserve" fill="#05434d">
<g>
	<g>
		<path d="M487.428,465.153l0.08-0.084c-0.127,0.129-12.837,12.896-28.241,12.967c-0.043,0-0.085,0-0.128,0
			c-8.604,0-16.79-4.004-25.024-12.237c-15.895-15.895-8.021-58.235-0.408-99.182c11.211-60.292,23.919-128.629-20.025-172.574
			c-14.353-14.353-29.213-23.514-44.318-27.393l42.338-42.338c1.723,2.662,3.71,5.174,5.998,7.463
			c9.871,9.871,22.503,15.298,35.596,15.298c0.079,0,0.161,0,0.24-0.001c12.855-0.066,25.13-5.296,34.564-14.73
			c19.872-19.872,17.693-43.557,13.108-70.215c-3.15-18.319-1.929-27.95-1.709-29.4l8.062-27.811l-28.266,7.577
			c-1.363,0.209-11.001,1.463-29.425-1.705c-26.657-4.585-50.342-6.762-70.214,13.108c-9.434,9.434-14.666,21.708-14.731,34.564
			c-0.068,13.178,5.364,25.905,15.295,35.836l0.002,0.001c2.289,2.289,4.801,4.275,7.463,5.998l-42.338,42.338
			c-3.88-15.106-13.041-29.966-27.394-44.32C274.012,54.372,205.675,67.08,145.381,78.289c-40.948,7.613-83.287,15.489-99.183-0.408
			c-8.271-8.272-12.273-16.498-12.234-25.149c0.071-15.404,12.838-28.114,12.967-28.241l-0.084,0.08L23.403,0
			C21.044,2.249,0.349,22.83,0.005,52.136c-0.214,18.09,7.249,34.833,22.179,49.763l181.951,181.951l-98.064,98.064l-50.557-12.62
			l-8.226,32.953l30.77,7.68l-10.483,10.483l-50.558-12.62L8.79,440.744l49.989,12.477l12.477,49.989l32.953-8.226l-12.62-50.557
			l10.483-10.483l7.68,30.771l32.953-8.226l-12.62-50.558l98.064-98.064l181.951,181.951c14.723,14.723,31.209,22.184,49.013,22.184
			c0.25,0,0.5-0.001,0.751-0.005c29.306-0.344,49.886-21.039,52.136-23.398L487.428,465.153z M403.674,47.915
			c6.383-6.382,13.412-8.302,40.443-3.652c8.295,1.426,15.337,2.149,21.168,2.452c0.305,5.832,1.026,12.873,2.452,21.169
			c4.65,27.031,2.732,34.061-3.651,40.444c-3.065,3.065-6.872,4.763-10.72,4.783c-0.024,0-0.045,0-0.069,0
			c-4.077,0-8.079-1.849-11.58-5.35c-3.335-3.336-4.397-8.351-2.836-13.413l9.459-30.693l-30.692,9.463
			c-5.062,1.56-10.075,0.497-13.411-2.836c-3.52-3.521-5.37-7.549-5.349-11.648C398.909,54.788,400.608,50.98,403.674,47.915z
			 M228.149,259.835L89.104,120.788c19.459-1.115,40.716-5.058,62.487-9.106c54.593-10.152,111.048-20.65,142.347,10.649
			c20.885,20.885,25.378,41.331,12.016,54.693c-8.439,8.44-23.004,11.952-31.229,3.726l-24.016,24.016
			c5.818,5.818,12.79,9.866,20.308,12.201L228.149,259.835z M400.317,360.408c-4.048,21.771-7.99,43.028-9.107,62.486
			L252.166,283.851l42.816-42.816c2.368,7.595,6.489,14.49,12.254,20.254l24.016-24.016c-8.226-8.227-4.714-22.79,3.726-31.23
			c3.79-3.789,10.32-8.163,19.975-7.497c10.686,0.742,22.692,7.489,34.716,19.513C420.967,249.358,410.47,305.814,400.317,360.408z"
			/>
	</g>
</g>
<g>
</g>
<g>
</g>
<g>
</g>
<g>
</g>
<g>
</g>
<g>
</g>
<g>
</g>
<g>
</g>
<g>
</g>
<g>
</g>
<g>
</g>
<g>
</g>
<g>
</g>
<g>
</g>
<g>
</g>
</svg>
